<svg xmlns="http://www.w3.org/2000/svg" xmlns:xlink="http://www.w3.org/1999/xlink" width="500" zoomAndPan="magnify" viewBox="0 0 375 374.999991" height="500" preserveAspectRatio="xMidYMid meet" version="1.0"><defs><g/><clipPath id="id1"><path d="M 22.5 131.707031 L 352.5 131.707031 L 352.5 134.707031 L 22.5 134.707031 Z M 22.5 131.707031 " clip-rule="nonzero"/></clipPath><clipPath id="id2"><path d="M 22.5 241.660156 L 352.5 241.660156 L 352.5 244.660156 L 22.5 244.660156 Z M 22.5 241.660156 " clip-rule="nonzero"/></clipPath></defs><g fill="#ffffff" fill-opacity="1"><g transform="translate(64.161724, 180.749988)"><g><path d="M 5.171875 0 C 4.671875 0 4.25 -0.164062 3.90625 -0.5 C 3.570312 -0.84375 3.40625 -1.265625 3.40625 -1.765625 L 3.40625 -24.78125 C 3.40625 -25.300781 3.570312 -25.722656 3.90625 -26.046875 C 4.25 -26.378906 4.671875 -26.546875 5.171875 -26.546875 C 5.691406 -26.546875 6.113281 -26.378906 6.4375 -26.046875 C 6.769531 -25.722656 6.9375 -25.300781 6.9375 -24.78125 L 6.9375 -15.03125 L 22.71875 -15.03125 L 22.71875 -24.78125 C 22.71875 -25.300781 22.882812 -25.722656 23.21875 -26.046875 C 23.5625 -26.378906 23.984375 -26.546875 24.484375 -26.546875 C 24.984375 -26.546875 25.394531 -26.378906 25.71875 -26.046875 C 26.050781 -25.722656 26.21875 -25.300781 26.21875 -24.78125 L 26.21875 -1.765625 C 26.21875 -1.242188 26.050781 -0.816406 25.71875 -0.484375 C 25.394531 -0.160156 24.984375 0 24.484375 0 C 23.984375 0 23.5625 -0.164062 23.21875 -0.5 C 22.882812 -0.84375 22.71875 -1.265625 22.71875 -1.765625 L 22.71875 -11.90625 L 6.9375 -11.90625 L 6.9375 -1.765625 C 6.9375 -1.265625 6.769531 -0.84375 6.4375 -0.5 C 6.113281 -0.164062 5.691406 0 5.171875 0 Z M 5.171875 0 "/></g></g></g><g fill="#ffffff" fill-opacity="1"><g transform="translate(100.572335, 180.749988)"><g><path d="M 9.6875 0.34375 C 8.101562 0.34375 6.691406 0 5.453125 -0.6875 C 4.222656 -1.382812 3.257812 -2.347656 2.5625 -3.578125 C 1.875 -4.816406 1.53125 -6.226562 1.53125 -7.8125 C 1.53125 -8.34375 1.695312 -8.769531 2.03125 -9.09375 C 2.375 -9.425781 2.796875 -9.59375 3.296875 -9.59375 C 3.816406 -9.59375 4.238281 -9.425781 4.5625 -9.09375 C 4.894531 -8.769531 5.0625 -8.34375 5.0625 -7.8125 C 5.0625 -6.363281 5.492188 -5.175781 6.359375 -4.25 C 7.222656 -3.320312 8.332031 -2.859375 9.6875 -2.859375 C 11.050781 -2.859375 12.164062 -3.320312 13.03125 -4.25 C 13.90625 -5.175781 14.34375 -6.363281 14.34375 -7.8125 L 14.34375 -24.78125 C 14.34375 -25.300781 14.503906 -25.722656 14.828125 -26.046875 C 15.160156 -26.378906 15.578125 -26.546875 16.078125 -26.546875 C 16.597656 -26.546875 17.03125 -26.378906 17.375 -26.046875 C 17.71875 -25.722656 17.890625 -25.300781 17.890625 -24.78125 L 17.890625 -7.8125 C 17.890625 -6.226562 17.535156 -4.816406 16.828125 -3.578125 C 16.128906 -2.347656 15.160156 -1.382812 13.921875 -0.6875 C 12.679688 0 11.269531 0.34375 9.6875 0.34375 Z M 9.6875 0.34375 "/></g></g></g><g fill="#ffffff" fill-opacity="1"><g transform="translate(128.653903, 180.749988)"><g><path d="M 5.171875 0 C 4.671875 0 4.25 -0.164062 3.90625 -0.5 C 3.570312 -0.84375 3.40625 -1.265625 3.40625 -1.765625 L 3.40625 -24.78125 C 3.40625 -25.300781 3.570312 -25.722656 3.90625 -26.046875 C 4.25 -26.378906 4.671875 -26.546875 5.171875 -26.546875 L 20.53125 -26.546875 C 21.050781 -26.546875 21.46875 -26.394531 21.78125 -26.09375 C 22.101562 -25.789062 22.265625 -25.390625 22.265625 -24.890625 C 22.265625 -24.410156 22.101562 -24.023438 21.78125 -23.734375 C 21.46875 -23.441406 21.050781 -23.296875 20.53125 -23.296875 L 6.9375 -23.296875 L 6.9375 -15.03125 L 16.6875 -15.03125 C 17.1875 -15.03125 17.597656 -14.875 17.921875 -14.5625 C 18.253906 -14.257812 18.421875 -13.867188 18.421875 -13.390625 C 18.421875 -12.921875 18.253906 -12.53125 17.921875 -12.21875 C 17.597656 -11.914062 17.1875 -11.765625 16.6875 -11.765625 L 6.9375 -11.765625 L 6.9375 -3.265625 L 20.53125 -3.265625 C 21.050781 -3.265625 21.46875 -3.113281 21.78125 -2.8125 C 22.101562 -2.519531 22.265625 -2.140625 22.265625 -1.671875 C 22.265625 -1.171875 22.101562 -0.765625 21.78125 -0.453125 C 21.46875 -0.148438 21.050781 0 20.53125 0 Z M 5.171875 0 "/></g></g></g><g fill="#ffffff" fill-opacity="1"><g transform="translate(159.251191, 180.749988)"><g><path d="M 5.140625 0 C 4.640625 0 4.222656 -0.164062 3.890625 -0.5 C 3.566406 -0.84375 3.40625 -1.265625 3.40625 -1.765625 L 3.40625 -24.78125 C 3.40625 -25.28125 3.570312 -25.695312 3.90625 -26.03125 C 4.25 -26.375 4.660156 -26.546875 5.140625 -26.546875 C 5.628906 -26.546875 6.046875 -26.375 6.390625 -26.03125 C 6.734375 -25.695312 6.90625 -25.28125 6.90625 -24.78125 L 6.90625 -3.53125 L 19.203125 -3.53125 C 19.703125 -3.53125 20.125 -3.359375 20.46875 -3.015625 C 20.8125 -2.679688 20.984375 -2.265625 20.984375 -1.765625 C 20.984375 -1.265625 20.8125 -0.84375 20.46875 -0.5 C 20.125 -0.164062 19.703125 0 19.203125 0 Z M 5.140625 0 "/></g></g></g><g fill="#ffffff" fill-opacity="1"><g transform="translate(187.876697, 180.749988)"><g><path d="M 28.21875 -26.546875 C 28.71875 -26.546875 29.132812 -26.375 29.46875 -26.03125 C 29.8125 -25.695312 29.984375 -25.28125 29.984375 -24.78125 L 29.984375 -1.765625 C 29.984375 -1.265625 29.804688 -0.84375 29.453125 -0.5 C 29.109375 -0.164062 28.695312 0 28.21875 0 C 27.71875 0 27.296875 -0.164062 26.953125 -0.5 C 26.617188 -0.84375 26.453125 -1.265625 26.453125 -1.765625 L 26.453125 -18.671875 L 18.21875 -1.90625 C 17.832031 -1.3125 17.320312 -1.015625 16.6875 -1.015625 C 15.945312 -1.015625 15.40625 -1.367188 15.0625 -2.078125 L 6.9375 -18.359375 L 6.9375 -1.765625 C 6.9375 -1.265625 6.765625 -0.84375 6.421875 -0.5 C 6.085938 -0.164062 5.671875 0 5.171875 0 C 4.671875 0 4.25 -0.164062 3.90625 -0.5 C 3.570312 -0.84375 3.40625 -1.265625 3.40625 -1.765625 L 3.40625 -24.78125 C 3.40625 -25.28125 3.570312 -25.695312 3.90625 -26.03125 C 4.25 -26.375 4.671875 -26.546875 5.171875 -26.546875 C 5.847656 -26.546875 6.367188 -26.234375 6.734375 -25.609375 L 16.828125 -5.375 L 26.65625 -25.609375 C 27.019531 -26.234375 27.539062 -26.546875 28.21875 -26.546875 Z M 28.21875 -26.546875 "/></g></g></g><g fill="#ffffff" fill-opacity="1"><g transform="translate(228.060883, 180.749988)"><g><path d="M 23.25 -2.484375 C 23.363281 -2.191406 23.421875 -1.941406 23.421875 -1.734375 C 23.421875 -1.253906 23.25 -0.84375 22.90625 -0.5 C 22.570312 -0.164062 22.15625 0 21.65625 0 C 21.3125 0 20.988281 -0.09375 20.6875 -0.28125 C 20.382812 -0.476562 20.164062 -0.75 20.03125 -1.09375 L 18.125 -5.84375 L 5.921875 -5.84375 L 3.984375 -1.09375 C 3.816406 -0.75 3.585938 -0.476562 3.296875 -0.28125 C 3.003906 -0.09375 2.6875 0 2.34375 0 C 1.84375 0 1.425781 -0.171875 1.09375 -0.515625 C 0.769531 -0.867188 0.609375 -1.285156 0.609375 -1.765625 C 0.609375 -1.992188 0.664062 -2.253906 0.78125 -2.546875 L 10.34375 -25.359375 C 10.675781 -26.148438 11.226562 -26.546875 12 -26.546875 C 12.8125 -26.546875 13.367188 -26.148438 13.671875 -25.359375 Z M 7.109375 -8.765625 L 16.9375 -8.765625 L 12.0625 -20.875 Z M 7.109375 -8.765625 "/></g></g></g><g fill="#ffffff" fill-opacity="1"><g transform="translate(258.76016, 180.749988)"><g><path d="M 20.640625 -2.71875 C 20.867188 -2.351562 20.984375 -1.976562 20.984375 -1.59375 C 20.984375 -1.144531 20.828125 -0.765625 20.515625 -0.453125 C 20.210938 -0.148438 19.800781 0 19.28125 0 C 18.625 0 18.113281 -0.28125 17.75 -0.84375 L 11.90625 -10.234375 L 6.9375 -10.234375 L 6.9375 -1.765625 C 6.9375 -1.265625 6.769531 -0.84375 6.4375 -0.5 C 6.113281 -0.164062 5.691406 0 5.171875 0 C 4.671875 0 4.25 -0.164062 3.90625 -0.5 C 3.570312 -0.84375 3.40625 -1.265625 3.40625 -1.765625 L 3.40625 -24.78125 C 3.40625 -25.300781 3.570312 -25.722656 3.90625 -26.046875 C 4.25 -26.378906 4.671875 -26.546875 5.171875 -26.546875 L 11.28125 -26.546875 C 12.957031 -26.546875 14.457031 -26.195312 15.78125 -25.5 C 17.113281 -24.800781 18.144531 -23.816406 18.875 -22.546875 C 19.613281 -21.273438 19.984375 -19.820312 19.984375 -18.1875 C 19.984375 -16.582031 19.578125 -15.15625 18.765625 -13.90625 C 17.953125 -12.65625 16.84375 -11.710938 15.4375 -11.078125 Z M 11.28125 -13.5 C 12.820312 -13.5 14.09375 -13.929688 15.09375 -14.796875 C 16.09375 -15.671875 16.59375 -16.800781 16.59375 -18.1875 C 16.59375 -19.6875 16.09375 -20.910156 15.09375 -21.859375 C 14.09375 -22.816406 12.820312 -23.296875 11.28125 -23.296875 L 6.9375 -23.296875 L 6.9375 -13.5 Z M 11.28125 -13.5 "/></g></g></g><g fill="#ffffff" fill-opacity="1"><g transform="translate(287.045696, 180.749988)"><g><path d="M 5.171875 0 C 4.671875 0 4.25 -0.164062 3.90625 -0.5 C 3.570312 -0.84375 3.40625 -1.265625 3.40625 -1.765625 L 3.40625 -24.78125 C 3.40625 -25.300781 3.570312 -25.722656 3.90625 -26.046875 C 4.25 -26.378906 4.671875 -26.546875 5.171875 -26.546875 L 20.53125 -26.546875 C 21.050781 -26.546875 21.46875 -26.394531 21.78125 -26.09375 C 22.101562 -25.789062 22.265625 -25.390625 22.265625 -24.890625 C 22.265625 -24.410156 22.101562 -24.023438 21.78125 -23.734375 C 21.46875 -23.441406 21.050781 -23.296875 20.53125 -23.296875 L 6.9375 -23.296875 L 6.9375 -15.03125 L 16.6875 -15.03125 C 17.1875 -15.03125 17.597656 -14.875 17.921875 -14.5625 C 18.253906 -14.257812 18.421875 -13.867188 18.421875 -13.390625 C 18.421875 -12.921875 18.253906 -12.53125 17.921875 -12.21875 C 17.597656 -11.914062 17.1875 -11.765625 16.6875 -11.765625 L 6.9375 -11.765625 L 6.9375 -3.265625 L 20.53125 -3.265625 C 21.050781 -3.265625 21.46875 -3.113281 21.78125 -2.8125 C 22.101562 -2.519531 22.265625 -2.140625 22.265625 -1.671875 C 22.265625 -1.171875 22.101562 -0.765625 21.78125 -0.453125 C 21.46875 -0.148438 21.050781 0 20.53125 0 Z M 5.171875 0 "/></g></g></g><g fill="#ffffff" fill-opacity="1"><g transform="translate(33.235945, 215.249986)"><g><path d="M 15.296875 0.34375 C 12.867188 0.34375 10.648438 -0.253906 8.640625 -1.453125 C 6.640625 -2.660156 5.0625 -4.304688 3.90625 -6.390625 C 2.75 -8.472656 2.171875 -10.773438 2.171875 -13.296875 C 2.171875 -15.785156 2.75 -18.066406 3.90625 -20.140625 C 5.0625 -22.210938 6.640625 -23.851562 8.640625 -25.0625 C 10.648438 -26.28125 12.867188 -26.890625 15.296875 -26.890625 C 17.023438 -26.890625 18.515625 -26.660156 19.765625 -26.203125 C 21.023438 -25.753906 22.300781 -25.007812 23.59375 -23.96875 C 23.863281 -23.757812 24.046875 -23.546875 24.140625 -23.328125 C 24.234375 -23.117188 24.28125 -22.867188 24.28125 -22.578125 C 24.28125 -22.117188 24.113281 -21.742188 23.78125 -21.453125 C 23.457031 -21.160156 23.078125 -21.015625 22.640625 -21.015625 C 22.210938 -21.015625 21.816406 -21.160156 21.453125 -21.453125 C 20.523438 -22.242188 19.617188 -22.816406 18.734375 -23.171875 C 17.847656 -23.523438 16.703125 -23.703125 15.296875 -23.703125 C 13.523438 -23.703125 11.894531 -23.234375 10.40625 -22.296875 C 8.925781 -21.367188 7.75 -20.101562 6.875 -18.5 C 6.007812 -16.90625 5.578125 -15.171875 5.578125 -13.296875 C 5.578125 -11.390625 6.007812 -9.640625 6.875 -8.046875 C 7.75 -6.460938 8.925781 -5.207031 10.40625 -4.28125 C 11.894531 -3.351562 13.523438 -2.890625 15.296875 -2.890625 C 17.472656 -2.890625 19.5625 -3.640625 21.5625 -5.140625 C 21.945312 -5.410156 22.316406 -5.546875 22.671875 -5.546875 C 23.109375 -5.546875 23.46875 -5.390625 23.75 -5.078125 C 24.03125 -4.773438 24.171875 -4.375 24.171875 -3.875 C 24.171875 -3.394531 23.988281 -2.976562 23.625 -2.625 C 21.175781 -0.644531 18.398438 0.34375 15.296875 0.34375 Z M 15.296875 0.34375 "/></g></g></g><g fill="#ffffff" fill-opacity="1"><g transform="translate(66.450932, 215.249986)"><g><path d="M 15.671875 0.34375 C 13.046875 0.34375 10.707031 -0.234375 8.65625 -1.390625 C 6.601562 -2.546875 5.007812 -4.160156 3.875 -6.234375 C 2.738281 -8.304688 2.171875 -10.660156 2.171875 -13.296875 C 2.171875 -15.921875 2.738281 -18.265625 3.875 -20.328125 C 5.007812 -22.390625 6.601562 -24 8.65625 -25.15625 C 10.707031 -26.3125 13.046875 -26.890625 15.671875 -26.890625 C 18.273438 -26.890625 20.601562 -26.3125 22.65625 -25.15625 C 24.707031 -24 26.304688 -22.390625 27.453125 -20.328125 C 28.597656 -18.265625 29.171875 -15.921875 29.171875 -13.296875 C 29.171875 -10.660156 28.597656 -8.304688 27.453125 -6.234375 C 26.304688 -4.160156 24.710938 -2.546875 22.671875 -1.390625 C 20.640625 -0.234375 18.304688 0.34375 15.671875 0.34375 Z M 15.671875 -2.859375 C 17.597656 -2.859375 19.332031 -3.316406 20.875 -4.234375 C 22.414062 -5.148438 23.613281 -6.398438 24.46875 -7.984375 C 25.332031 -9.578125 25.765625 -11.347656 25.765625 -13.296875 C 25.765625 -15.242188 25.332031 -17.007812 24.46875 -18.59375 C 23.613281 -20.1875 22.421875 -21.4375 20.890625 -22.34375 C 19.359375 -23.25 17.617188 -23.703125 15.671875 -23.703125 C 13.722656 -23.703125 11.984375 -23.25 10.453125 -22.34375 C 8.921875 -21.4375 7.722656 -20.1875 6.859375 -18.59375 C 6.003906 -17.007812 5.578125 -15.242188 5.578125 -13.296875 C 5.578125 -11.347656 6.003906 -9.578125 6.859375 -7.984375 C 7.722656 -6.398438 8.925781 -5.148438 10.46875 -4.234375 C 12.007812 -3.316406 13.742188 -2.859375 15.671875 -2.859375 Z M 15.671875 -2.859375 "/></g></g></g><g fill="#ffffff" fill-opacity="1"><g transform="translate(104.561357, 215.249986)"><g><path d="M 5.140625 0 C 4.640625 0 4.222656 -0.160156 3.890625 -0.484375 C 3.566406 -0.816406 3.40625 -1.242188 3.40625 -1.765625 L 3.40625 -24.78125 C 3.40625 -25.300781 3.566406 -25.722656 3.890625 -26.046875 C 4.222656 -26.378906 4.640625 -26.546875 5.140625 -26.546875 C 5.390625 -26.546875 5.632812 -26.484375 5.875 -26.359375 C 6.125 -26.242188 6.332031 -26.09375 6.5 -25.90625 L 21.3125 -6.1875 L 21.3125 -24.78125 C 21.3125 -25.300781 21.484375 -25.722656 21.828125 -26.046875 C 22.171875 -26.378906 22.59375 -26.546875 23.09375 -26.546875 C 23.582031 -26.546875 23.988281 -26.378906 24.3125 -26.046875 C 24.644531 -25.722656 24.8125 -25.300781 24.8125 -24.78125 L 24.8125 -1.765625 C 24.8125 -1.242188 24.644531 -0.816406 24.3125 -0.484375 C 23.988281 -0.160156 23.582031 0 23.09375 0 C 22.84375 0 22.585938 -0.0507812 22.328125 -0.15625 C 22.066406 -0.257812 21.863281 -0.410156 21.71875 -0.609375 L 6.90625 -20.328125 L 6.90625 -1.765625 C 6.90625 -1.265625 6.738281 -0.84375 6.40625 -0.5 C 6.082031 -0.164062 5.660156 0 5.140625 0 Z M 5.140625 0 "/></g></g></g><g fill="#ffffff" fill-opacity="1"><g transform="translate(139.578135, 215.249986)"><g><path d="M 11.828125 0.34375 C 9.628906 0.34375 7.628906 -0.15625 5.828125 -1.15625 C 4.023438 -2.15625 2.785156 -3.457031 2.109375 -5.0625 C 1.992188 -5.332031 1.9375 -5.5625 1.9375 -5.75 C 1.9375 -6.082031 2.0625 -6.378906 2.3125 -6.640625 C 2.5625 -6.898438 2.898438 -7.078125 3.328125 -7.171875 C 3.398438 -7.191406 3.515625 -7.203125 3.671875 -7.203125 C 4.035156 -7.203125 4.378906 -7.09375 4.703125 -6.875 C 5.035156 -6.664062 5.28125 -6.378906 5.4375 -6.015625 C 5.84375 -5.128906 6.644531 -4.378906 7.84375 -3.765625 C 9.050781 -3.160156 10.378906 -2.859375 11.828125 -2.859375 C 13.523438 -2.859375 14.960938 -3.25 16.140625 -4.03125 C 17.328125 -4.8125 17.921875 -5.878906 17.921875 -7.234375 C 17.921875 -8.535156 17.421875 -9.644531 16.421875 -10.5625 C 15.421875 -11.476562 13.898438 -12.035156 11.859375 -12.234375 C 9.054688 -12.503906 6.847656 -13.328125 5.234375 -14.703125 C 3.628906 -16.078125 2.828125 -17.796875 2.828125 -19.859375 C 2.828125 -21.304688 3.238281 -22.554688 4.0625 -23.609375 C 4.882812 -24.660156 6.015625 -25.460938 7.453125 -26.015625 C 8.898438 -26.578125 10.519531 -26.859375 12.3125 -26.859375 C 14.257812 -26.859375 15.898438 -26.460938 17.234375 -25.671875 C 18.578125 -24.878906 19.710938 -23.742188 20.640625 -22.265625 C 20.910156 -21.835938 21.046875 -21.429688 21.046875 -21.046875 C 21.046875 -20.546875 20.816406 -20.140625 20.359375 -19.828125 C 20.109375 -19.660156 19.816406 -19.578125 19.484375 -19.578125 C 19.140625 -19.578125 18.820312 -19.660156 18.53125 -19.828125 C 18.238281 -20.003906 18.007812 -20.238281 17.84375 -20.53125 C 17.238281 -21.550781 16.472656 -22.328125 15.546875 -22.859375 C 14.628906 -23.390625 13.46875 -23.65625 12.0625 -23.65625 C 10.34375 -23.65625 8.953125 -23.320312 7.890625 -22.65625 C 6.828125 -21.988281 6.296875 -21.019531 6.296875 -19.75 C 6.296875 -18.570312 6.769531 -17.585938 7.71875 -16.796875 C 8.664062 -16.003906 10.363281 -15.484375 12.8125 -15.234375 C 15.53125 -14.960938 17.640625 -14.140625 19.140625 -12.765625 C 20.640625 -11.390625 21.390625 -9.582031 21.390625 -7.34375 C 21.390625 -5.707031 20.945312 -4.304688 20.0625 -3.140625 C 19.175781 -1.972656 18 -1.097656 16.53125 -0.515625 C 15.070312 0.0546875 13.503906 0.34375 11.828125 0.34375 Z M 11.828125 0.34375 "/></g></g></g><g fill="#ffffff" fill-opacity="1"><g transform="translate(169.767464, 215.249986)"><g><path d="M 14.515625 0.546875 C 12.359375 0.546875 10.4375 0.144531 8.75 -0.65625 C 7.0625 -1.46875 5.75 -2.585938 4.8125 -4.015625 C 3.875 -5.441406 3.40625 -7.070312 3.40625 -8.90625 L 3.40625 -24.78125 C 3.40625 -25.300781 3.570312 -25.722656 3.90625 -26.046875 C 4.25 -26.378906 4.671875 -26.546875 5.171875 -26.546875 C 5.691406 -26.546875 6.113281 -26.378906 6.4375 -26.046875 C 6.769531 -25.722656 6.9375 -25.300781 6.9375 -24.78125 L 6.9375 -8.90625 C 6.9375 -7.707031 7.257812 -6.628906 7.90625 -5.671875 C 8.550781 -4.722656 9.445312 -3.984375 10.59375 -3.453125 C 11.738281 -2.921875 13.046875 -2.65625 14.515625 -2.65625 C 15.921875 -2.65625 17.175781 -2.921875 18.28125 -3.453125 C 19.394531 -3.984375 20.265625 -4.722656 20.890625 -5.671875 C 21.515625 -6.628906 21.828125 -7.707031 21.828125 -8.90625 L 21.828125 -24.78125 C 21.828125 -25.300781 21.992188 -25.722656 22.328125 -26.046875 C 22.671875 -26.378906 23.09375 -26.546875 23.59375 -26.546875 C 24.09375 -26.546875 24.503906 -26.378906 24.828125 -26.046875 C 25.160156 -25.722656 25.328125 -25.300781 25.328125 -24.78125 L 25.328125 -8.90625 C 25.328125 -7.09375 24.867188 -5.46875 23.953125 -4.03125 C 23.035156 -2.59375 21.753906 -1.46875 20.109375 -0.65625 C 18.460938 0.144531 16.597656 0.546875 14.515625 0.546875 Z M 14.515625 0.546875 "/></g></g></g><g fill="#ffffff" fill-opacity="1"><g transform="translate(205.29418, 215.249986)"><g><path d="M 5.140625 0 C 4.640625 0 4.222656 -0.164062 3.890625 -0.5 C 3.566406 -0.84375 3.40625 -1.265625 3.40625 -1.765625 L 3.40625 -24.78125 C 3.40625 -25.28125 3.570312 -25.695312 3.90625 -26.03125 C 4.25 -26.375 4.660156 -26.546875 5.140625 -26.546875 C 5.628906 -26.546875 6.046875 -26.375 6.390625 -26.03125 C 6.734375 -25.695312 6.90625 -25.28125 6.90625 -24.78125 L 6.90625 -3.53125 L 19.203125 -3.53125 C 19.703125 -3.53125 20.125 -3.359375 20.46875 -3.015625 C 20.8125 -2.679688 20.984375 -2.265625 20.984375 -1.765625 C 20.984375 -1.265625 20.8125 -0.84375 20.46875 -0.5 C 20.125 -0.164062 19.703125 0 19.203125 0 Z M 5.140625 0 "/></g></g></g><g fill="#ffffff" fill-opacity="1"><g transform="translate(233.919686, 215.249986)"><g><path d="M 20.328125 -26.546875 C 20.804688 -26.546875 21.195312 -26.394531 21.5 -26.09375 C 21.8125 -25.789062 21.96875 -25.398438 21.96875 -24.921875 C 21.96875 -24.441406 21.8125 -24.050781 21.5 -23.75 C 21.195312 -23.445312 20.804688 -23.296875 20.328125 -23.296875 L 13.015625 -23.296875 L 13.015625 -1.765625 C 13.015625 -1.265625 12.84375 -0.84375 12.5 -0.5 C 12.164062 -0.164062 11.75 0 11.25 0 C 10.75 0 10.328125 -0.164062 9.984375 -0.5 C 9.648438 -0.84375 9.484375 -1.265625 9.484375 -1.765625 L 9.484375 -23.296875 L 2.140625 -23.296875 C 1.660156 -23.296875 1.269531 -23.445312 0.96875 -23.75 C 0.664062 -24.050781 0.515625 -24.441406 0.515625 -24.921875 C 0.515625 -25.398438 0.664062 -25.789062 0.96875 -26.09375 C 1.269531 -26.394531 1.660156 -26.546875 2.140625 -26.546875 Z M 20.328125 -26.546875 "/></g></g></g><g fill="#ffffff" fill-opacity="1"><g transform="translate(263.19113, 215.249986)"><g><path d="M 5.171875 0 C 4.671875 0 4.25 -0.164062 3.90625 -0.5 C 3.570312 -0.84375 3.40625 -1.265625 3.40625 -1.765625 L 3.40625 -24.78125 C 3.40625 -25.300781 3.570312 -25.722656 3.90625 -26.046875 C 4.25 -26.378906 4.671875 -26.546875 5.171875 -26.546875 C 5.691406 -26.546875 6.113281 -26.378906 6.4375 -26.046875 C 6.769531 -25.722656 6.9375 -25.300781 6.9375 -24.78125 L 6.9375 -1.765625 C 6.9375 -1.265625 6.769531 -0.84375 6.4375 -0.5 C 6.113281 -0.164062 5.691406 0 5.171875 0 Z M 5.171875 0 "/></g></g></g><g fill="#ffffff" fill-opacity="1"><g transform="translate(280.325956, 215.249986)"><g><path d="M 5.140625 0 C 4.640625 0 4.222656 -0.160156 3.890625 -0.484375 C 3.566406 -0.816406 3.40625 -1.242188 3.40625 -1.765625 L 3.40625 -24.78125 C 3.40625 -25.300781 3.566406 -25.722656 3.890625 -26.046875 C 4.222656 -26.378906 4.640625 -26.546875 5.140625 -26.546875 C 5.390625 -26.546875 5.632812 -26.484375 5.875 -26.359375 C 6.125 -26.242188 6.332031 -26.09375 6.5 -25.90625 L 21.3125 -6.1875 L 21.3125 -24.78125 C 21.3125 -25.300781 21.484375 -25.722656 21.828125 -26.046875 C 22.171875 -26.378906 22.59375 -26.546875 23.09375 -26.546875 C 23.582031 -26.546875 23.988281 -26.378906 24.3125 -26.046875 C 24.644531 -25.722656 24.8125 -25.300781 24.8125 -24.78125 L 24.8125 -1.765625 C 24.8125 -1.242188 24.644531 -0.816406 24.3125 -0.484375 C 23.988281 -0.160156 23.582031 0 23.09375 0 C 22.84375 0 22.585938 -0.0507812 22.328125 -0.15625 C 22.066406 -0.257812 21.863281 -0.410156 21.71875 -0.609375 L 6.90625 -20.328125 L 6.90625 -1.765625 C 6.90625 -1.265625 6.738281 -0.84375 6.40625 -0.5 C 6.082031 -0.164062 5.660156 0 5.140625 0 Z M 5.140625 0 "/></g></g></g><g fill="#ffffff" fill-opacity="1"><g transform="translate(315.342723, 215.249986)"><g><path d="M 22.4375 -13.765625 C 22.9375 -13.765625 23.347656 -13.597656 23.671875 -13.265625 C 24.003906 -12.941406 24.171875 -12.519531 24.171875 -12 L 24.171875 -3.875 C 24.171875 -3.332031 23.988281 -2.914062 23.625 -2.625 C 21.25 -0.644531 18.472656 0.34375 15.296875 0.34375 C 12.867188 0.34375 10.648438 -0.253906 8.640625 -1.453125 C 6.640625 -2.660156 5.0625 -4.304688 3.90625 -6.390625 C 2.75 -8.472656 2.171875 -10.773438 2.171875 -13.296875 C 2.171875 -15.785156 2.75 -18.066406 3.90625 -20.140625 C 5.0625 -22.210938 6.640625 -23.851562 8.640625 -25.0625 C 10.648438 -26.28125 12.867188 -26.890625 15.296875 -26.890625 C 17.023438 -26.890625 18.515625 -26.660156 19.765625 -26.203125 C 21.023438 -25.753906 22.300781 -25.007812 23.59375 -23.96875 C 23.863281 -23.757812 24.046875 -23.546875 24.140625 -23.328125 C 24.234375 -23.117188 24.28125 -22.867188 24.28125 -22.578125 C 24.28125 -22.117188 24.113281 -21.742188 23.78125 -21.453125 C 23.457031 -21.160156 23.066406 -21.015625 22.609375 -21.015625 C 22.203125 -21.015625 21.816406 -21.160156 21.453125 -21.453125 C 20.523438 -22.242188 19.617188 -22.816406 18.734375 -23.171875 C 17.847656 -23.523438 16.703125 -23.703125 15.296875 -23.703125 C 13.523438 -23.703125 11.894531 -23.234375 10.40625 -22.296875 C 8.925781 -21.367188 7.75 -20.101562 6.875 -18.5 C 6.007812 -16.90625 5.578125 -15.171875 5.578125 -13.296875 C 5.578125 -11.390625 6.007812 -9.640625 6.875 -8.046875 C 7.75 -6.460938 8.925781 -5.207031 10.40625 -4.28125 C 11.894531 -3.351562 13.523438 -2.890625 15.296875 -2.890625 C 17.203125 -2.890625 19.03125 -3.457031 20.78125 -4.59375 L 20.78125 -10.640625 L 16.078125 -10.640625 C 15.554688 -10.640625 15.128906 -10.785156 14.796875 -11.078125 C 14.472656 -11.378906 14.3125 -11.753906 14.3125 -12.203125 C 14.3125 -12.660156 14.472656 -13.035156 14.796875 -13.328125 C 15.128906 -13.617188 15.554688 -13.765625 16.078125 -13.765625 Z M 22.4375 -13.765625 "/></g></g></g><g clip-path="url(#id1)"><path fill="#ffffff" d="M 22.5 131.707031 L 352.5 131.707031 L 352.5 134.707031 L 22.5 134.707031 Z M 22.5 131.707031 " fill-opacity="1" fill-rule="nonzero"/></g><g clip-path="url(#id2)"><path fill="#ffffff" d="M 22.5 241.660156 L 352.5 241.660156 L 352.5 244.660156 L 22.5 244.660156 Z M 22.5 241.660156 " fill-opacity="1" fill-rule="nonzero"/></g></svg>